<svg width="40" height="35" viewBox="0 0 40 35" fill="none" xmlns="http://www.w3.org/2000/svg">
<path d="M2.46121 0C1.08293 0 0 1.08293 0 2.46121C0 3.83949 1.08293 4.92242 2.46121 4.92242C3.83949 4.92242 4.92242 3.83949 4.92242 2.46121C4.92242 1.08293 3.83949 0 2.46121 0ZM9.84484 0V4.92242H39.3794V0H9.84484ZM2.46121 9.84484C1.08293 9.84484 0 10.9278 0 12.3061C0 13.6843 1.08293 14.7673 2.46121 14.7673C3.83949 14.7673 4.92242 13.6843 4.92242 12.3061C4.92242 10.9278 3.83949 9.84484 2.46121 9.84484ZM9.84484 9.84484V14.7673H39.3794V9.84484H9.84484ZM2.46121 19.6897C1.08293 19.6897 0 20.7726 0 22.1509C0 23.5292 1.08293 24.6121 2.46121 24.6121C3.83949 24.6121 4.92242 23.5292 4.92242 22.1509C4.92242 20.7726 3.83949 19.6897 2.46121 19.6897ZM9.84484 19.6897V24.6121H39.3794V19.6897H9.84484ZM2.46121 29.5345C1.08293 29.5345 0 30.6175 0 31.9957C0 33.374 1.08293 34.4569 2.46121 34.4569C3.83949 34.4569 4.92242 33.374 4.92242 31.9957C4.92242 30.6175 3.83949 29.5345 2.46121 29.5345ZM9.84484 29.5345V34.4569H39.3794V29.5345H9.84484Z" fill="white"/>
</svg>
