<svg width="18" height="12" viewBox="0 0 18 12" fill="none" xmlns="http://www.w3.org/2000/svg">
<path fill-rule="evenodd" clip-rule="evenodd" d="M14.623 1.56589C14.6 1.68181 14.6 1.8212 14.6 2.1V9.8C14.6 10.0788 14.6 10.2182 14.623 10.3341C14.7177 10.8101 15.0899 11.1823 15.5659 11.2769C15.6818 11.3 15.8212 11.3 16.1 11.3C16.3788 11.3 16.5182 11.3 16.6341 11.2769C17.1101 11.1823 17.4822 10.8101 17.5769 10.3341C17.6 10.2182 17.6 10.0788 17.6 9.8V2.1C17.6 1.82121 17.6 1.68181 17.5769 1.56589C17.4822 1.08986 17.1101 0.717744 16.6341 0.623056C16.5182 0.599998 16.3788 0.599998 16.1 0.599998C15.8212 0.599998 15.6818 0.599998 15.5659 0.623056C15.0899 0.717744 14.7177 1.08986 14.623 1.56589ZM9.89999 4.5C9.89999 4.22121 9.89999 4.08181 9.92305 3.96589C10.0177 3.48986 10.3899 3.11775 10.8659 3.02306C10.9818 3 11.1212 3 11.4 3C11.6788 3 11.8182 3 11.9341 3.02306C12.4101 3.11775 12.7822 3.48986 12.8769 3.96589C12.9 4.08181 12.9 4.22121 12.9 4.5V9.8C12.9 10.0788 12.9 10.2182 12.8769 10.3341C12.7822 10.8101 12.4101 11.1823 11.9341 11.2769C11.8182 11.3 11.6788 11.3 11.4 11.3C11.1212 11.3 10.9818 11.3 10.8659 11.2769C10.3899 11.1823 10.0177 10.8101 9.92305 10.3341C9.89999 10.2182 9.89999 10.0788 9.89999 9.8V4.5ZM5.32305 6.26589C5.29999 6.38181 5.29999 6.52121 5.29999 6.8V9.8C5.29999 10.0788 5.29999 10.2182 5.32305 10.3341C5.41773 10.8101 5.78985 11.1823 6.26588 11.2769C6.3818 11.3 6.52119 11.3 6.79999 11.3C7.07878 11.3 7.21818 11.3 7.3341 11.2769C7.81012 11.1823 8.18224 10.8101 8.27693 10.3341C8.29999 10.2182 8.29999 10.0788 8.29999 9.8V6.8C8.29999 6.52121 8.29999 6.38181 8.27693 6.26589C8.18224 5.78987 7.81012 5.41775 7.3341 5.32306C7.21818 5.3 7.07878 5.3 6.79999 5.3C6.52119 5.3 6.3818 5.3 6.26588 5.32306C5.78985 5.41775 5.41773 5.78987 5.32305 6.26589ZM0.523058 8.26589C0.5 8.38181 0.5 8.52121 0.5 8.8V9.8C0.5 10.0788 0.5 10.2182 0.523058 10.3341C0.617746 10.8101 0.989863 11.1823 1.46589 11.2769C1.58181 11.3 1.72121 11.3 2 11.3C2.27879 11.3 2.41819 11.3 2.53411 11.2769C3.01014 11.1823 3.38225 10.8101 3.47694 10.3341C3.5 10.2182 3.5 10.0788 3.5 9.8V8.8C3.5 8.52121 3.5 8.38181 3.47694 8.26589C3.38225 7.78987 3.01014 7.41775 2.53411 7.32306C2.41819 7.3 2.27879 7.3 2 7.3C1.72121 7.3 1.58181 7.3 1.46589 7.32306C0.989863 7.41775 0.617746 7.78987 0.523058 8.26589Z" fill="#484848"/>
</svg>
