<svg width="51" height="51" viewBox="0 0 51 51" fill="none" xmlns="http://www.w3.org/2000/svg">
<path d="M29.1428 1.82153H5.46427C3.45237 1.82153 1.82141 3.45249 1.82141 5.46439V45.5358C1.82141 47.5478 3.45237 49.1787 5.46427 49.1787H38.25C40.2619 49.1787 41.8928 47.5478 41.8928 45.5358V29.143" stroke="black" stroke-linecap="round" stroke-linejoin="round"/>
<path d="M1.82141 38.25H41.8928" stroke="black" stroke-linecap="round" stroke-linejoin="round"/>
<path d="M12.75 10.9287H20.0357" stroke="black" stroke-linecap="round" stroke-linejoin="round"/>
<path d="M12.75 20.0359H16.3929" stroke="black" stroke-linecap="round" stroke-linejoin="round"/>
<path d="M32.7643 27.3427L21.8358 29.3098L23.6572 18.2355L39.0663 2.89908C39.4051 2.55765 39.808 2.28664 40.2521 2.10169C40.6958 1.91675 41.1719 1.82153 41.6528 1.82153C42.134 1.82153 42.6101 1.91675 43.0538 2.10169C43.4979 2.28664 43.9008 2.55765 44.2392 2.89908L48.1006 6.76052C48.4423 7.09916 48.7133 7.50206 48.898 7.94598C49.0831 8.3899 49.1782 8.86605 49.1782 9.34695C49.1782 9.82784 49.0831 10.304 48.898 10.7479C48.7133 11.1918 48.4423 11.5947 48.1006 11.9334L32.7643 27.3427Z" stroke="black" stroke-linecap="round" stroke-linejoin="round"/>
</svg>
