<svg width="20" height="20" viewBox="0 0 20 20" fill="none" xmlns="http://www.w3.org/2000/svg">
<path d="M14.1667 1.66663H5.83335C3.53335 1.66663 1.66669 3.52496 1.66669 5.81663V10.8V11.6333C1.66669 13.925 3.53335 15.7833 5.83335 15.7833H7.08335C7.30835 15.7833 7.60835 15.9333 7.75002 16.1166L9.00002 17.775C9.55002 18.5083 10.45 18.5083 11 17.775L12.25 16.1166C12.4084 15.9083 12.6584 15.7833 12.9167 15.7833H14.1667C16.4667 15.7833 18.3334 13.925 18.3334 11.6333V5.81663C18.3334 3.52496 16.4667 1.66663 14.1667 1.66663ZM6.66669 9.99996C6.20002 9.99996 5.83335 9.62496 5.83335 9.16663C5.83335 8.70829 6.20835 8.33329 6.66669 8.33329C7.12502 8.33329 7.50002 8.70829 7.50002 9.16663C7.50002 9.62496 7.13335 9.99996 6.66669 9.99996ZM10 9.99996C9.53335 9.99996 9.16669 9.62496 9.16669 9.16663C9.16669 8.70829 9.54169 8.33329 10 8.33329C10.4584 8.33329 10.8334 8.70829 10.8334 9.16663C10.8334 9.62496 10.4667 9.99996 10 9.99996ZM13.3334 9.99996C12.8667 9.99996 12.5 9.62496 12.5 9.16663C12.5 8.70829 12.875 8.33329 13.3334 8.33329C13.7917 8.33329 14.1667 8.70829 14.1667 9.16663C14.1667 9.62496 13.8 9.99996 13.3334 9.99996Z" fill="#121212"/>
</svg>
