<svg width="64" height="12" viewBox="0 0 64 12" fill="none" xmlns="http://www.w3.org/2000/svg">
<g clip-path="url(#clip0_79_18935)">
<path d="M8.8809 11.2502C8.80752 11.2505 8.73592 11.2259 8.6763 11.1799L5.87413 8.99455L3.07194 11.1799C3.01208 11.2266 2.93995 11.2516 2.866 11.2513C2.79204 11.251 2.72009 11.2254 2.66054 11.1783C2.60099 11.1311 2.55693 11.0648 2.53473 10.9889C2.51253 10.913 2.51334 10.8315 2.53704 10.7561L3.62994 7.274L0.797475 5.18455C0.736122 5.13934 0.689816 5.07421 0.665324 4.99868C0.640831 4.92315 0.639435 4.84117 0.661339 4.76472C0.683244 4.68827 0.727301 4.62136 0.787074 4.57377C0.846847 4.52617 0.919202 4.50038 0.993569 4.50017H4.48796L5.54251 1.00916C5.56523 0.933789 5.60955 0.868096 5.66913 0.821505C5.7287 0.774913 5.80047 0.749817 5.87413 0.749817C5.94778 0.749817 6.01955 0.774913 6.07912 0.821505C6.1387 0.868096 6.18302 0.933789 6.20574 1.00916L7.26029 4.50135H10.7547C10.8291 4.50131 10.9017 4.52691 10.9616 4.57442C11.0216 4.62192 11.0658 4.68883 11.0878 4.76533C11.1099 4.84184 11.1086 4.92393 11.0841 4.99957C11.0596 5.07522 11.0133 5.14046 10.9519 5.18572L8.11831 7.274L9.21055 10.7552C9.22825 10.8115 9.23323 10.8716 9.22507 10.9305C9.21692 10.9893 9.19587 11.0452 9.16367 11.0936C9.13146 11.1419 9.08902 11.1813 9.03985 11.2086C8.99068 11.2358 8.9362 11.2501 8.8809 11.2502Z" fill="#FFAD30"/>
</g>
<g clip-path="url(#clip1_79_18935)">
<path d="M21.8957 11.2502C21.8224 11.2505 21.7508 11.2259 21.6911 11.1799L18.889 8.99455L16.0868 11.1799C16.0269 11.2266 15.9548 11.2516 15.8808 11.2513C15.8069 11.251 15.7349 11.2254 15.6754 11.1783C15.6158 11.1311 15.5718 11.0648 15.5496 10.9889C15.5274 10.913 15.5282 10.8315 15.5519 10.7561L16.6448 7.274L13.8123 5.18455C13.751 5.13934 13.7046 5.07421 13.6802 4.99868C13.6557 4.92315 13.6543 4.84117 13.6762 4.76472C13.6981 4.68827 13.7421 4.62136 13.8019 4.57377C13.8617 4.52617 13.934 4.50038 14.0084 4.50017H17.5028L18.5573 1.00916C18.5801 0.933789 18.6244 0.868096 18.684 0.821505C18.7435 0.774913 18.8153 0.749817 18.889 0.749817C18.9626 0.749817 19.0344 0.774913 19.094 0.821505C19.1535 0.868096 19.1979 0.933789 19.2206 1.00916L20.2751 4.50135H23.7695C23.844 4.50131 23.9165 4.52691 23.9764 4.57442C24.0364 4.62192 24.0806 4.68883 24.1027 4.76533C24.1247 4.84184 24.1234 4.92393 24.0989 4.99957C24.0745 5.07522 24.0281 5.14046 23.9667 5.18572L21.1331 7.274L22.2254 10.7552C22.2431 10.8115 22.2481 10.8716 22.2399 10.9305C22.2318 10.9893 22.2107 11.0452 22.1785 11.0936C22.1463 11.1419 22.1039 11.1813 22.0547 11.2086C22.0055 11.2358 21.951 11.2501 21.8957 11.2502Z" fill="#FFAD30"/>
</g>
<g clip-path="url(#clip2_79_18935)">
<path d="M34.9106 11.2502C34.8372 11.2505 34.7656 11.2259 34.706 11.1799L31.9038 8.99455L29.1016 11.1799C29.0417 11.2266 28.9696 11.2516 28.8957 11.2513C28.8217 11.251 28.7498 11.2254 28.6902 11.1783C28.6307 11.1311 28.5866 11.0648 28.5644 10.9889C28.5422 10.913 28.543 10.8315 28.5667 10.7561L29.6596 7.274L26.8271 5.18455C26.7658 5.13934 26.7195 5.07421 26.695 4.99868C26.6705 4.92315 26.6691 4.84117 26.691 4.76472C26.7129 4.68827 26.757 4.62136 26.8167 4.57377C26.8765 4.52617 26.9489 4.50038 27.0232 4.50017H30.5176L31.5722 1.00916C31.5949 0.933789 31.6392 0.868096 31.6988 0.821505C31.7584 0.774913 31.8301 0.749817 31.9038 0.749817C31.9774 0.749817 32.0492 0.774913 32.1088 0.821505C32.1684 0.868096 32.2127 0.933789 32.2354 1.00916L33.29 4.50135H36.7843C36.8588 4.50131 36.9313 4.52691 36.9913 4.57442C37.0512 4.62192 37.0955 4.68883 37.1175 4.76533C37.1395 4.84184 37.1382 4.92393 37.1138 4.99957C37.0893 5.07522 37.043 5.14046 36.9815 5.18572L34.148 7.274L35.2402 10.7552C35.2579 10.8115 35.2629 10.8716 35.2547 10.9305C35.2466 10.9893 35.2255 11.0452 35.1933 11.0936C35.1611 11.1419 35.1187 11.1813 35.0695 11.2086C35.0203 11.2358 34.9659 11.2501 34.9106 11.2502Z" fill="#FFAD30"/>
</g>
<g clip-path="url(#clip3_79_18935)">
<path d="M47.9254 11.2502C47.852 11.2505 47.7804 11.2259 47.7208 11.1799L44.9186 8.99455L42.1164 11.1799C42.0566 11.2266 41.9844 11.2516 41.9105 11.2513C41.8365 11.251 41.7646 11.2254 41.705 11.1783C41.6455 11.1311 41.6014 11.0648 41.5792 10.9889C41.557 10.913 41.5578 10.8315 41.5815 10.7561L42.6744 7.274L39.842 5.18455C39.7806 5.13934 39.7343 5.07421 39.7098 4.99868C39.6853 4.92315 39.6839 4.84117 39.7058 4.76472C39.7277 4.68827 39.7718 4.62136 39.8316 4.57377C39.8913 4.52617 39.9637 4.50038 40.0381 4.50017H43.5325L44.587 1.00916C44.6097 0.933789 44.654 0.868096 44.7136 0.821505C44.7732 0.774913 44.845 0.749817 44.9186 0.749817C44.9923 0.749817 45.064 0.774913 45.1236 0.821505C45.1832 0.868096 45.2275 0.933789 45.2502 1.00916L46.3048 4.50135H49.7992C49.8736 4.50131 49.9462 4.52691 50.0061 4.57442C50.0661 4.62192 50.1103 4.68883 50.1323 4.76533C50.1544 4.84184 50.1531 4.92393 50.1286 4.99957C50.1041 5.07522 50.0578 5.14046 49.9964 5.18572L47.1628 7.274L48.255 10.7552C48.2727 10.8115 48.2777 10.8716 48.2696 10.9305C48.2614 10.9893 48.2404 11.0452 48.2082 11.0936C48.176 11.1419 48.1335 11.1813 48.0843 11.2086C48.0352 11.2358 47.9807 11.2501 47.9254 11.2502Z" fill="#FFAD30"/>
</g>
<g clip-path="url(#clip4_79_18935)">
<path d="M60.9402 11.2502C60.8668 11.2505 60.7952 11.2259 60.7356 11.1799L57.9334 8.99455L55.1312 11.1799C55.0713 11.2266 54.9992 11.2516 54.9253 11.2513C54.8513 11.251 54.7794 11.2254 54.7198 11.1783C54.6603 11.1311 54.6162 11.0648 54.594 10.9889C54.5718 10.913 54.5726 10.8315 54.5963 10.7561L55.6892 7.274L52.8567 5.18455C52.7954 5.13934 52.7491 5.07421 52.7246 4.99868C52.7001 4.92315 52.6987 4.84117 52.7206 4.76472C52.7425 4.68827 52.7866 4.62136 52.8463 4.57377C52.9061 4.52617 52.9785 4.50038 53.0528 4.50017H56.5472L57.6018 1.00916C57.6245 0.933789 57.6688 0.868096 57.7284 0.821505C57.788 0.774913 57.8597 0.749817 57.9334 0.749817C58.007 0.749817 58.0788 0.774913 58.1384 0.821505C58.198 0.868096 58.2423 0.933789 58.265 1.00916L59.3196 4.50135H62.8139C62.8884 4.50131 62.9609 4.52691 63.0209 4.57442C63.0808 4.62192 63.1251 4.68883 63.1471 4.76533C63.1691 4.84184 63.1678 4.92393 63.1434 4.99957C63.1189 5.07522 63.0726 5.14046 63.0111 5.18572L60.1776 7.274L61.2698 10.7552C61.2875 10.8115 61.2925 10.8716 61.2843 10.9305C61.2762 10.9893 61.2551 11.0452 61.2229 11.0936C61.1907 11.1419 61.1483 11.1813 61.0991 11.2086C61.0499 11.2358 60.9955 11.2501 60.9402 11.2502Z" fill="#FFAD30"/>
</g>
<defs>
<clipPath id="clip0_79_18935">
<rect width="11.1556" height="12" fill="white" transform="translate(0.296326)"/>
</clipPath>
<clipPath id="clip1_79_18935">
<rect width="11.1556" height="12" fill="white" transform="translate(13.3112)"/>
</clipPath>
<clipPath id="clip2_79_18935">
<rect width="11.1556" height="12" fill="white" transform="translate(26.326)"/>
</clipPath>
<clipPath id="clip3_79_18935">
<rect width="11.1556" height="12" fill="white" transform="translate(39.3408)"/>
</clipPath>
<clipPath id="clip4_79_18935">
<rect width="11.1556" height="12" fill="white" transform="translate(52.3556)"/>
</clipPath>
</defs>
</svg>
