<svg width="68" height="12" viewBox="0 0 68 12" fill="none" xmlns="http://www.w3.org/2000/svg">
<g clip-path="url(#clip0_79_18955)">
<path d="M9.23443 11.2502C9.1555 11.2505 9.07848 11.2259 9.01435 11.1799L6.00005 8.99455L2.98576 11.1799C2.92136 11.2266 2.84377 11.2516 2.76422 11.2513C2.68467 11.251 2.60727 11.2254 2.54321 11.1783C2.47915 11.1311 2.43176 11.0648 2.40788 10.9889C2.384 10.913 2.38487 10.8315 2.41036 10.7561L3.58599 7.274L0.539115 5.18455C0.473117 5.13934 0.423306 5.07421 0.39696 4.99868C0.370613 4.92315 0.369111 4.84117 0.392674 4.76472C0.416236 4.68827 0.463628 4.62136 0.527926 4.57377C0.592223 4.52617 0.670056 4.50038 0.750052 4.50017H4.50896L5.64333 1.00916C5.66777 0.933789 5.71545 0.868096 5.77954 0.821505C5.84362 0.774913 5.92082 0.749817 6.00005 0.749817C6.07928 0.749817 6.15648 0.774913 6.22057 0.821505C6.28465 0.868096 6.33233 0.933789 6.35677 1.00916L7.49115 4.50135H11.2501C11.3301 4.50131 11.4082 4.52691 11.4726 4.57442C11.5371 4.62192 11.5847 4.68883 11.6084 4.76533C11.6321 4.84184 11.6307 4.92393 11.6044 4.99957C11.5781 5.07522 11.5282 5.14046 11.4622 5.18572L8.41411 7.274L9.58904 10.7552C9.60807 10.8115 9.61343 10.8716 9.60466 10.9305C9.59589 10.9893 9.57325 11.0452 9.5386 11.0936C9.50396 11.1419 9.45831 11.1813 9.40542 11.2086C9.35253 11.2358 9.29392 11.2501 9.23443 11.2502Z" fill="#FFAD30"/>
</g>
<g clip-path="url(#clip1_79_18955)">
<path d="M23.2344 11.2502C23.1555 11.2505 23.0785 11.2259 23.0143 11.1799L20.0001 8.99455L16.9858 11.1799C16.9214 11.2266 16.8438 11.2516 16.7642 11.2513C16.6847 11.251 16.6073 11.2254 16.5432 11.1783C16.4792 11.1311 16.4318 11.0648 16.4079 10.9889C16.384 10.913 16.3849 10.8315 16.4104 10.7561L17.586 7.274L14.5391 5.18455C14.4731 5.13934 14.4233 5.07421 14.397 4.99868C14.3706 4.92315 14.3691 4.84117 14.3927 4.76472C14.4162 4.68827 14.4636 4.62136 14.5279 4.57377C14.5922 4.52617 14.6701 4.50038 14.7501 4.50017H18.509L19.6433 1.00916C19.6678 0.933789 19.7155 0.868096 19.7795 0.821505C19.8436 0.774913 19.9208 0.749817 20.0001 0.749817C20.0793 0.749817 20.1565 0.774913 20.2206 0.821505C20.2847 0.868096 20.3323 0.933789 20.3568 1.00916L21.4911 4.50135H25.2501C25.3301 4.50131 25.4082 4.52691 25.4726 4.57442C25.5371 4.62192 25.5847 4.68883 25.6084 4.76533C25.6321 4.84184 25.6307 4.92393 25.6044 4.99957C25.5781 5.07522 25.5282 5.14046 25.4622 5.18572L22.4141 7.274L23.589 10.7552C23.6081 10.8115 23.6134 10.8716 23.6047 10.9305C23.5959 10.9893 23.5732 11.0452 23.5386 11.0936C23.504 11.1419 23.4583 11.1813 23.4054 11.2086C23.3525 11.2358 23.2939 11.2501 23.2344 11.2502Z" fill="#FFAD30"/>
</g>
<g clip-path="url(#clip2_79_18955)">
<path d="M37.2344 11.2502C37.1555 11.2505 37.0785 11.2259 37.0143 11.1799L34.0001 8.99455L30.9858 11.1799C30.9214 11.2266 30.8438 11.2516 30.7642 11.2513C30.6847 11.251 30.6073 11.2254 30.5432 11.1783C30.4792 11.1311 30.4318 11.0648 30.4079 10.9889C30.384 10.913 30.3849 10.8315 30.4104 10.7561L31.586 7.274L28.5391 5.18455C28.4731 5.13934 28.4233 5.07421 28.397 4.99868C28.3706 4.92315 28.3691 4.84117 28.3927 4.76472C28.4162 4.68827 28.4636 4.62136 28.5279 4.57377C28.5922 4.52617 28.6701 4.50038 28.7501 4.50017H32.509L33.6433 1.00916C33.6678 0.933789 33.7155 0.868096 33.7795 0.821505C33.8436 0.774913 33.9208 0.749817 34.0001 0.749817C34.0793 0.749817 34.1565 0.774913 34.2206 0.821505C34.2847 0.868096 34.3323 0.933789 34.3568 1.00916L35.4911 4.50135H39.2501C39.3301 4.50131 39.4082 4.52691 39.4726 4.57442C39.5371 4.62192 39.5847 4.68883 39.6084 4.76533C39.6321 4.84184 39.6307 4.92393 39.6044 4.99957C39.5781 5.07522 39.5282 5.14046 39.4622 5.18572L36.4141 7.274L37.589 10.7552C37.6081 10.8115 37.6134 10.8716 37.6047 10.9305C37.5959 10.9893 37.5732 11.0452 37.5386 11.0936C37.504 11.1419 37.4583 11.1813 37.4054 11.2086C37.3525 11.2358 37.2939 11.2501 37.2344 11.2502Z" fill="#FFAD30"/>
</g>
<g clip-path="url(#clip3_79_18955)">
<path d="M51.2344 11.2502C51.1555 11.2505 51.0785 11.2259 51.0143 11.1799L48.0001 8.99455L44.9858 11.1799C44.9214 11.2266 44.8438 11.2516 44.7642 11.2513C44.6847 11.251 44.6073 11.2254 44.5432 11.1783C44.4792 11.1311 44.4318 11.0648 44.4079 10.9889C44.384 10.913 44.3849 10.8315 44.4104 10.7561L45.586 7.274L42.5391 5.18455C42.4731 5.13934 42.4233 5.07421 42.397 4.99868C42.3706 4.92315 42.3691 4.84117 42.3927 4.76472C42.4162 4.68827 42.4636 4.62136 42.5279 4.57377C42.5922 4.52617 42.6701 4.50038 42.7501 4.50017H46.509L47.6433 1.00916C47.6678 0.933789 47.7155 0.868096 47.7795 0.821505C47.8436 0.774913 47.9208 0.749817 48.0001 0.749817C48.0793 0.749817 48.1565 0.774913 48.2206 0.821505C48.2847 0.868096 48.3323 0.933789 48.3568 1.00916L49.4911 4.50135H53.2501C53.3301 4.50131 53.4082 4.52691 53.4726 4.57442C53.5371 4.62192 53.5847 4.68883 53.6084 4.76533C53.6321 4.84184 53.6307 4.92393 53.6044 4.99957C53.5781 5.07522 53.5282 5.14046 53.4622 5.18572L50.4141 7.274L51.589 10.7552C51.6081 10.8115 51.6134 10.8716 51.6047 10.9305C51.5959 10.9893 51.5732 11.0452 51.5386 11.0936C51.504 11.1419 51.4583 11.1813 51.4054 11.2086C51.3525 11.2358 51.2939 11.2501 51.2344 11.2502Z" fill="#FFAD30"/>
</g>
<g clip-path="url(#clip4_79_18955)">
<path d="M65.2344 11.2502C65.1555 11.2505 65.0785 11.2259 65.0143 11.1799L62.0001 8.99455L58.9858 11.1799C58.9214 11.2266 58.8438 11.2516 58.7642 11.2513C58.6847 11.251 58.6073 11.2254 58.5432 11.1783C58.4792 11.1311 58.4318 11.0648 58.4079 10.9889C58.384 10.913 58.3849 10.8315 58.4104 10.7561L59.586 7.274L56.5391 5.18455C56.4731 5.13934 56.4233 5.07421 56.397 4.99868C56.3706 4.92315 56.3691 4.84117 56.3927 4.76472C56.4162 4.68827 56.4636 4.62136 56.5279 4.57377C56.5922 4.52617 56.6701 4.50038 56.7501 4.50017H60.509L61.6433 1.00916C61.6678 0.933789 61.7155 0.868096 61.7795 0.821505C61.8436 0.774913 61.9208 0.749817 62.0001 0.749817C62.0793 0.749817 62.1565 0.774913 62.2206 0.821505C62.2847 0.868096 62.3323 0.933789 62.3568 1.00916L63.4911 4.50135H67.2501C67.3301 4.50131 67.4082 4.52691 67.4726 4.57442C67.5371 4.62192 67.5847 4.68883 67.6084 4.76533C67.6321 4.84184 67.6307 4.92393 67.6044 4.99957C67.5781 5.07522 67.5282 5.14046 67.4622 5.18572L64.4141 7.274L65.589 10.7552C65.6081 10.8115 65.6134 10.8716 65.6047 10.9305C65.5959 10.9893 65.5732 11.0452 65.5386 11.0936C65.504 11.1419 65.4583 11.1813 65.4054 11.2086C65.3525 11.2358 65.2939 11.2501 65.2344 11.2502Z" fill="#FFAD30"/>
</g>
<defs>
<clipPath id="clip0_79_18955">
<rect width="12" height="12" fill="white"/>
</clipPath>
<clipPath id="clip1_79_18955">
<rect width="12" height="12" fill="white" transform="translate(14)"/>
</clipPath>
<clipPath id="clip2_79_18955">
<rect width="12" height="12" fill="white" transform="translate(28)"/>
</clipPath>
<clipPath id="clip3_79_18955">
<rect width="12" height="12" fill="white" transform="translate(42)"/>
</clipPath>
<clipPath id="clip4_79_18955">
<rect width="12" height="12" fill="white" transform="translate(56)"/>
</clipPath>
</defs>
</svg>
