<svg width="14" height="14" viewBox="0 0 14 14" fill="none" xmlns="http://www.w3.org/2000/svg">
<path fill-rule="evenodd" clip-rule="evenodd" d="M5.51256 2.01256C5.84075 1.68437 6.28587 1.5 6.75 1.5C7.21413 1.5 7.65925 1.68437 7.98744 2.01256C8.1948 2.21993 8.34475 2.47397 8.42705 2.75H5.07295C5.15525 2.47397 5.3052 2.21993 5.51256 2.01256ZM3.53868 2.75C3.64405 2.07321 3.96153 1.44227 4.4519 0.951903C5.0614 0.34241 5.88805 0 6.75 0C7.61195 0 8.4386 0.34241 9.0481 0.951903C9.53847 1.44227 9.856 2.07321 9.9613 2.75H12.75C13.1642 2.75 13.5 3.08579 13.5 3.5C13.5 3.91422 13.1642 4.25 12.75 4.25H11.75V12.5C11.75 12.8978 11.592 13.2794 11.3107 13.5607C11.0294 13.842 10.6478 14 10.25 14H3.25C2.85217 14 2.47064 13.842 2.18934 13.5607C1.90804 13.2794 1.75 12.8978 1.75 12.5V4.25H0.75C0.335786 4.25 0 3.91422 0 3.5C0 3.08579 0.335786 2.75 0.75 2.75H3.53868ZM4.75 5.87646C5.09518 5.87646 5.375 6.15629 5.375 6.50146V10.503C5.375 10.8481 5.09518 11.128 4.75 11.128C4.40482 11.128 4.125 10.8481 4.125 10.503V6.50146C4.125 6.15629 4.40482 5.87646 4.75 5.87646ZM9.375 6.50146C9.375 6.15629 9.09518 5.87646 8.75 5.87646C8.40482 5.87646 8.125 6.15629 8.125 6.50146V10.503C8.125 10.8481 8.40482 11.128 8.75 11.128C9.09518 11.128 9.375 10.8481 9.375 10.503V6.50146Z" fill="black"/>
</svg>
