<svg width="8" height="8" viewBox="0 0 8 8" fill="none" xmlns="http://www.w3.org/2000/svg">
<g clip-path="url(#clip0_79_19092)">
<path d="M6.15626 7.50012C6.10364 7.50032 6.0523 7.48392 6.00955 7.45324L4.00001 5.99637L1.99048 7.45324C1.94755 7.48438 1.89583 7.50106 1.84279 7.50087C1.78976 7.50067 1.73816 7.48362 1.69545 7.45217C1.65275 7.42072 1.62115 7.3765 1.60523 7.32591C1.58931 7.27532 1.58989 7.22098 1.60689 7.17074L2.39064 4.84934L0.359389 3.45637C0.315391 3.42623 0.282184 3.38281 0.264619 3.33245C0.247055 3.2821 0.246054 3.22744 0.261762 3.17648C0.27747 3.12551 0.309065 3.08091 0.35193 3.04918C0.394795 3.01745 0.446684 3.00026 0.500014 3.00012H3.00595L3.7622 0.672773C3.77849 0.622526 3.81028 0.578731 3.853 0.54767C3.89573 0.516609 3.94719 0.499878 4.00001 0.499878C4.05284 0.499878 4.1043 0.516609 4.14702 0.54767C4.18975 0.578731 4.22154 0.622526 4.23783 0.672773L4.99408 3.0009H7.50001C7.55341 3.00087 7.60542 3.01794 7.64841 3.04961C7.6914 3.08128 7.72312 3.12588 7.73893 3.17689C7.75474 3.22789 7.7538 3.28262 7.73625 3.33305C7.71871 3.38348 7.68547 3.42697 7.64142 3.45715L5.60939 4.84934L6.39267 7.17012C6.40536 7.20769 6.40893 7.24774 6.40309 7.28697C6.39724 7.3262 6.38214 7.36347 6.35905 7.39571C6.33595 7.42795 6.30552 7.45423 6.27026 7.47239C6.235 7.49054 6.19592 7.50005 6.15626 7.50012Z" fill="#FFAD30"/>
</g>
<defs>
<clipPath id="clip0_79_19092">
<rect width="8" height="8" fill="white"/>
</clipPath>
</defs>
</svg>
