<svg width="68" height="68" viewBox="0 0 68 68" fill="none" xmlns="http://www.w3.org/2000/svg">
<path d="M34 38.857C40.7063 38.857 46.1429 33.4205 46.1429 26.7141C46.1429 20.0078 40.7063 14.5713 34 14.5713C27.2937 14.5713 21.8572 20.0078 21.8572 26.7141C21.8572 33.4205 27.2937 38.857 34 38.857Z" stroke="black" stroke-linecap="round" stroke-linejoin="round"/>
<path d="M13.2599 57.7998C15.4274 54.2419 18.4737 51.3014 22.1058 49.2614C25.738 47.2209 29.8339 46.1492 33.9999 46.1492C38.166 46.1492 42.2619 47.2209 45.8941 49.2614C49.5264 51.3014 52.5723 54.2419 54.74 57.7998" stroke="black" stroke-linecap="round" stroke-linejoin="round"/>
<path d="M34 65.5713C51.4367 65.5713 65.5714 51.4366 65.5714 33.9999C65.5714 16.5635 51.4367 2.42847 34 2.42847C16.5636 2.42847 2.42859 16.5635 2.42859 33.9999C2.42859 51.4366 16.5636 65.5713 34 65.5713Z" stroke="black" stroke-linecap="round" stroke-linejoin="round"/>
</svg>
