<svg width="52" height="50" viewBox="0 0 52 50" fill="none" xmlns="http://www.w3.org/2000/svg">
<path d="M49.14 22.3081C49.7558 23.0464 50.0968 24.0056 50.0968 25.0001C50.0968 25.9946 49.7558 26.9538 49.14 27.6921C45.24 32.2324 36.3628 41.0717 25.9999 41.0717C15.637 41.0717 6.75991 32.2324 2.8599 27.6921C2.24392 26.9538 1.90295 25.9946 1.90295 25.0001C1.90295 24.0056 2.24392 23.0464 2.8599 22.3081C6.75991 17.7679 15.637 8.92847 25.9999 8.92847C36.3628 8.92847 45.24 17.7679 49.14 22.3081Z" stroke="black" stroke-linecap="round" stroke-linejoin="round"/>
<path d="M26 32.1426C30.1027 32.1426 33.4286 28.9447 33.4286 24.9998C33.4286 21.0549 30.1027 17.8569 26 17.8569C21.8974 17.8569 18.5715 21.0549 18.5715 24.9998C18.5715 28.9447 21.8974 32.1426 26 32.1426Z" stroke="black" stroke-linecap="round" stroke-linejoin="round"/>
</svg>
