<svg width="18" height="17" viewBox="0 0 18 17" fill="none" xmlns="http://www.w3.org/2000/svg">
<path d="M8.9907 16.1146C5.27904 16.1146 2.26154 13.0971 2.26154 9.38542C2.26154 5.67375 5.27904 2.65625 8.9907 2.65625C12.7024 2.65625 15.7199 5.67375 15.7199 9.38542C15.7199 13.0971 12.7024 16.1146 8.9907 16.1146ZM8.9907 3.71875C5.86695 3.71875 3.32404 6.26167 3.32404 9.38542C3.32404 12.5092 5.86695 15.0521 8.9907 15.0521C12.1145 15.0521 14.6574 12.5092 14.6574 9.38542C14.6574 6.26167 12.1145 3.71875 8.9907 3.71875Z" fill="#A9A9A9"/>
<path d="M8.99072 9.7396C8.70031 9.7396 8.45947 9.49877 8.45947 9.20835V5.66669C8.45947 5.37627 8.70031 5.13544 8.99072 5.13544C9.28114 5.13544 9.52197 5.37627 9.52197 5.66669V9.20835C9.52197 9.49877 9.28114 9.7396 8.99072 9.7396Z" fill="#A9A9A9"/>
<path d="M11.1157 1.94794H6.86572C6.57531 1.94794 6.33447 1.7071 6.33447 1.41669C6.33447 1.12627 6.57531 0.885437 6.86572 0.885437H11.1157C11.4061 0.885437 11.647 1.12627 11.647 1.41669C11.647 1.7071 11.4061 1.94794 11.1157 1.94794Z" fill="#A9A9A9"/>
</svg>
