<svg width="23" height="18" viewBox="0 0 23 18" fill="none" xmlns="http://www.w3.org/2000/svg">
<path d="M10.7151 16.3125C5.547 16.3125 1.33936 12.8625 1.33936 8.625C1.33936 4.3875 5.547 0.9375 10.7151 0.9375C15.8832 0.9375 20.0908 4.3875 20.0908 8.625C20.0908 12.8625 15.8832 16.3125 10.7151 16.3125ZM10.7151 2.0625C6.29706 2.0625 2.71141 5.01 2.71141 8.625C2.71141 12.24 6.29706 15.1875 10.7151 15.1875C15.1331 15.1875 18.7188 12.24 18.7188 8.625C18.7188 5.01 15.1331 2.0625 10.7151 2.0625Z" fill="#D9D9D9"/>
<path d="M20.3196 17.0625C20.1458 17.0625 19.972 17.01 19.8348 16.8975L18.0053 15.3975C17.7401 15.18 17.7401 14.82 18.0053 14.6025C18.2706 14.385 18.7097 14.385 18.9749 14.6025L20.8043 16.1025C21.0696 16.32 21.0696 16.68 20.8043 16.8975C20.6671 17.01 20.4933 17.0625 20.3196 17.0625Z" fill="#D9D9D9"/>
</svg>
