<svg width="17" height="17" viewBox="0 0 17 17" fill="none" xmlns="http://www.w3.org/2000/svg">
<path d="M8.49998 16.1146C4.78831 16.1146 1.77081 13.0971 1.77081 9.38542C1.77081 5.67375 4.78831 2.65625 8.49998 2.65625C12.2116 2.65625 15.2291 5.67375 15.2291 9.38542C15.2291 13.0971 12.2116 16.1146 8.49998 16.1146ZM8.49998 3.71875C5.37623 3.71875 2.83331 6.26167 2.83331 9.38542C2.83331 12.5092 5.37623 15.0521 8.49998 15.0521C11.6237 15.0521 14.1666 12.5092 14.1666 9.38542C14.1666 6.26167 11.6237 3.71875 8.49998 3.71875Z" fill="#D9D9D9"/>
<path d="M8.5 9.7396C8.20958 9.7396 7.96875 9.49877 7.96875 9.20835V5.66669C7.96875 5.37627 8.20958 5.13544 8.5 5.13544C8.79042 5.13544 9.03125 5.37627 9.03125 5.66669V9.20835C9.03125 9.49877 8.79042 9.7396 8.5 9.7396Z" fill="#D9D9D9"/>
<path d="M10.625 1.94794H6.375C6.08458 1.94794 5.84375 1.7071 5.84375 1.41669C5.84375 1.12627 6.08458 0.885437 6.375 0.885437H10.625C10.9154 0.885437 11.1562 1.12627 11.1562 1.41669C11.1562 1.7071 10.9154 1.94794 10.625 1.94794Z" fill="#D9D9D9"/>
</svg>
